<?xml version="1.0" encoding="UTF-8" standalone="no"?>
<!DOCTYPE svg PUBLIC "-//W3C//DTD SVG 1.1//EN"
    "http://www.w3.org/Graphics/SVG/1.1/DTD/svg11.dtd">
<svg width="0" height="0" class="hidden" version="1.1"
     baseProfile="full"
     xmlns="http://www.w3.org/2000/svg"
     xmlns:xlink="http://www.w3.org/1999/xlink"
     xmlns:ev="http://www.w3.org/2001/xml-events">
  <symbol xmlns="http://www.w3.org/2000/svg" viewBox="0 0 22 36" id="microfon">
    <path d="M21.326 11.706V16.11H14.04V19.024H21.309V23.412H14.056V26.359H21.194C20.475 31.369 16.212 35.177 11.06 35.177C5.90796 35.177 1.64496 31.369 0.931962 26.414L0.925962 26.359H8.09696V23.461H0.860962V19.057H8.09696V16.126H0.860962V11.755H8.09696V8.792H0.958962C1.72396 3.832 5.96296 0.0780029 11.078 0.0780029C16.187 0.0780029 20.422 3.823 21.187 8.718L21.194 8.776H14.039V11.707L21.326 11.706Z" fill="#BDAE82"></path>
  </symbol>
  <symbol xmlns="http://www.w3.org/2000/svg" viewBox="0 0 28 22" id="twiter">
    <path d="M27.333 2.83998C26.333 3.33298 25.333 3.50698 24.16 3.66698C25.333 2.99998 26.16 1.99998 26.493 0.666984C25.488 1.27498 24.317 1.73798 23.07 1.98898L23 2.00098C21.969 0.986984 20.56 0.354984 19.004 0.333984H19C16.16 0.333984 13.667 2.84098 13.667 5.84098C13.667 6.33398 13.667 6.66798 13.84 7.00098C9.26197 6.82298 5.22097 4.66398 2.52897 1.36198L2.50697 1.33398C2.08197 2.05998 1.83097 2.93198 1.83097 3.86298C1.83097 3.97198 1.83397 4.08098 1.84097 4.18898L1.83997 4.17398C1.87397 6.05198 2.84897 7.69498 4.31297 8.65498L4.33397 8.66798C3.49397 8.66798 2.66697 8.33498 1.82697 8.00098C1.82697 10.668 3.66697 12.841 6.15997 13.334C5.66697 13.507 5.15997 13.507 4.66697 13.507C4.33397 13.507 3.99997 13.507 3.66697 13.334C4.33397 15.507 6.33397 17.174 8.83997 17.174C7.03997 18.629 4.72397 19.509 2.20297 19.509C2.13197 19.509 2.06097 19.508 1.98997 19.507H2.00097H0.667969C3.03297 21.016 5.90397 21.936 8.98397 22H9.00097C19.001 22 24.508 13.667 24.508 6.49298V5.82598C25.655 5.03598 26.601 4.03898 27.311 2.88198L27.335 2.83998H27.333Z" fill="white"></path>
  </symbol>
  <symbol xmlns="http://www.w3.org/2000/svg" viewBox="0 0 24 7" id="skill-foto2">
    <path d="M23.28 6.16506H0.531998C0.888998 4.73506 1.211 3.35906 1.568 1.98306C1.646 0.853064 2.582 -0.0339355 3.725 -0.0339355C3.859 -0.0339355 3.991 -0.0219355 4.118 0.00206446L4.105 6.4455e-05H19.938C20.008 -0.00793555 20.089 -0.0129355 20.17 -0.0129355C21.219 -0.0129355 22.085 0.766065 22.224 1.77606L22.225 1.78706C22.565 3.07406 22.886 4.36006 23.208 5.64706C23.244 5.80806 23.244 5.96906 23.279 6.16506H23.28Z" fill="#CCBA8D"></path>
  </symbol>
  <symbol xmlns="http://www.w3.org/2000/svg" viewBox="0 0 62 42" id="skill-foto">
    <path d="M30.897 42.036C22.766 42.036 14.635 42.036 6.505 42.036C6.478 42.036 6.447 42.037 6.415 42.037C2.872 42.037 0 39.165 0 35.622C0 35.59 0 35.559 0.001 35.527V35.532C0.0723333 26.0967 0.0723333 16.6554 0.001 7.20803C0.001 7.19703 0.001 7.18503 0.001 7.17203C0.001 3.61903 2.881 0.739033 6.434 0.739033C22.767 0.739033 39.082 0.739033 55.415 0.739033C55.497 0.735033 55.593 0.733032 55.69 0.733032C59.085 0.733032 61.837 3.48503 61.837 6.88003C61.837 6.98303 61.834 7.08503 61.829 7.18603L61.83 7.17203V35.532C61.837 35.641 61.841 35.768 61.841 35.897C61.841 39.292 59.089 42.044 55.694 42.044C55.59 42.044 55.486 42.041 55.383 42.036L55.398 42.037L30.897 42.036ZM30.897 35.871C30.939 35.871 30.99 35.872 31.04 35.872C39.014 35.872 45.479 29.407 45.479 21.433C45.479 13.459 39.014 6.99403 31.04 6.99403C23.078 6.99403 16.622 13.438 16.601 21.394V21.396C16.65 29.281 22.988 35.669 30.849 35.799H30.861L30.897 35.871ZM12.384 11.049C12.345 9.92803 11.436 9.03103 10.313 9.01203H10.311C9.176 9.01203 8.256 9.93203 8.256 11.067C8.256 12.202 9.176 13.122 10.311 13.122C11.448 13.102 12.364 12.186 12.384 11.051V11.049Z" fill="#CCBA8D"></path>
  </symbol>
  <symbol xmlns="http://www.w3.org/2000/svg" viewBox="0 0 32 26" id="podmicrfon">
    <path d="M4.371 26V23.102H14.587V16.93C6.391 16.113 0.038 9.27196 0 0.93796V0.93396H2.881C2.895 5.33096 5.074 9.21596 8.407 11.581L8.448 11.608C10.52 13.153 13.131 14.082 15.959 14.082C16.196 14.082 16.432 14.075 16.667 14.063L16.634 14.064C23.627 13.725 29.177 8.00396 29.24 0.97296V0.966959H32.138C32.138 0.999959 32.138 1.03896 32.138 1.07796C32.138 5.22796 30.531 9.00296 27.905 11.815L27.913 11.806C25.306 14.656 21.696 16.55 17.645 16.926L17.582 16.931V23.021H27.831V25.968L4.371 26Z" fill="#CCBA8D"></path>
  </symbol>
  <symbol xmlns="http://www.w3.org/2000/svg" viewBox="0 0 60 50" id="plen">
    <path d="M59.843 1.30696V48.781C59.465 49.535 58.698 50.043 57.812 50.043C57.748 50.043 57.685 50.04 57.622 50.035L57.63 50.036H2.194C2.128 50.044 2.051 50.048 1.973 50.048C0.876 50.048 -0.0130005 49.159 -0.0130005 48.062C-0.0130005 47.984 -0.00900049 47.907 -4.88944e-07 47.831L-0.00100049 47.84C-0.00100049 32.6133 -0.00100049 17.387 -0.00100049 2.16096C-0.00600049 2.10596 -0.0100005 2.04196 -0.0100005 1.97696C-0.0100005 0.879962 0.878999 -0.00903808 1.976 -0.00903808C2.047 -0.00903808 2.116 -0.00503808 2.185 0.00196192L2.176 0.000961917C20.666 0.000961917 39.1447 0.000961917 57.612 0.000961917C57.687 -0.00803808 57.774 -0.0140381 57.863 -0.0140381C58.75 -0.0140381 59.511 0.524962 59.837 1.29296L59.842 1.30696H59.843ZM22.544 24.983V30.575C22.545 30.941 22.596 31.295 22.69 31.631L22.683 31.603C23.038 32.503 23.901 33.128 24.909 33.128C25.419 33.128 25.892 32.968 26.28 32.695L26.272 32.7C29.6 30.784 32.892 28.85 36.185 26.899C36.865 26.531 37.318 25.823 37.318 25.009C37.318 24.195 36.864 23.487 36.196 23.124L36.185 23.118C32.892 21.097 29.513 19.163 26.133 17.212C25.78 16.992 25.351 16.861 24.892 16.861C23.583 16.861 22.523 17.922 22.523 19.23C22.523 19.28 22.525 19.33 22.528 19.379V19.372C22.65 21.236 22.545 23.118 22.545 24.982L22.544 24.983ZM9.443 6.55096V3.57196H3.572V6.55096H9.443ZM3.484 46.376H9.442V43.449H3.484V46.376ZM18.833 3.57096H13.066V6.53296H18.833V3.57096ZM22.456 3.57096V6.53296H28.24V3.48396L22.456 3.57096ZM37.613 6.55096V3.57196H31.846V6.53396L37.613 6.55096ZM47.038 3.57096H41.219V6.53296H47.038V3.57096ZM37.631 46.394V43.554H31.847V46.481L37.631 46.394ZM18.815 46.394V43.554H13.048V46.481L18.815 46.394ZM28.24 46.394V43.554H22.473V46.498L28.24 46.394ZM47.038 43.449H41.219V46.376H47.038V43.449ZM56.289 6.55096V3.48496H50.627V6.55096H56.289ZM56.289 43.449H50.627V46.393H56.306L56.289 43.449Z" fill="#BDAE82"></path>
  </symbol>
  <symbol xmlns="http://www.w3.org/2000/svg" viewBox="0 0 130 130" id="Play_hover">
    <path d="M58.521 0.13572C58.0219 0.256183 55.5699 0.686409 53.0729 1.09112C6.17415 8.69809 -16.0083 65.9044 13.0263 104.367C22.0681 116.344 42.8323 129.906 43.8607 124.506C43.9895 123.832 42.7534 122.978 39.6854 121.624C27.0991 116.065 15.7097 105.112 9.49548 92.5938C-13.0744 47.1276 25.5402 -4.32319 75.965 4.02852C83.5399 5.28359 84.8555 2.66782 77.4319 1.11129C74.053 0.402757 60.344 -0.303999 58.521 0.136315V0.13572ZM58.8236 13.5427C49.9562 14.8494 38.5455 19.3896 38.5455 21.6114C38.5455 23.3352 39.8261 23.2017 44.5063 20.9901C70.1424 8.8779 101.354 22.1306 110.64 49.0716C126.075 93.8524 75.1194 131.76 36.427 104.279C14.9264 89.009 9.96843 58.679 25.4031 36.8396C29.4989 31.0443 27.3436 28.5941 23.1612 34.2914C-2.60779 69.3966 24.2964 118.982 67.7711 116.507C111.658 114.008 132.641 61.4206 102.441 29.6195C91.3694 17.9613 73.5088 11.378 58.8242 13.5415L58.8236 13.5427ZM111.588 21.4488C110.688 22.349 111.376 23.9601 114.257 27.704C135.62 55.4579 128.626 96.9429 99.2939 116.46C86.0768 125.255 74.472 127.692 52.7708 126.233C50.7271 126.096 50.3491 126.252 50.3491 127.237C50.3491 131.711 76.324 130.498 89.2029 125.422C126.968 110.539 141.858 62.4946 119.094 28.9739C114.774 22.6137 112.602 20.4352 111.588 21.4494L111.588 21.4488ZM47.2645 44.1107C46.191 45.2963 46.099 46.6867 45.9347 64.2031C45.6647 92.9997 42.7985 92.1292 77.569 73.8111C94.5145 64.8831 94.6095 65.1632 70.3056 52.4143C51.3039 42.4467 49.3949 41.7584 47.2645 44.1107V44.1107ZM68.2637 55.0052C86.726 64.6481 86.8221 64.7081 85.5308 65.7798C84.0829 66.982 51.1615 84 50.285 84C49.5812 84 49.4412 80.8353 49.4412 64.9324C49.4412 51.5574 49.6388 45.8642 50.1022 45.8642C50.4654 45.8642 58.6385 49.9778 68.2643 55.0052H68.2637Z" fill="white"></path>
  </symbol>
  <symbol xmlns="http://www.w3.org/2000/svg" viewBox="0 0 50 40" id="logo">
    <path d="M20.4506 0.259178C19.0919 0.696909 17.9456 1.47652 17.6601 2.15634L17.5398 2.4419L15.6561 2.43301L15.4116 1.93006C15.2253 1.54668 15.063 1.3708 14.7263 1.18701L14.2864 0.945911H11.1062C6.93498 0.945911 6.40895 1.15341 6.40895 2.80355V3.26796L5.69955 3.61478C3.08441 4.8924 1.03538 7.41602 0.225789 10.3546L0.000346207 11.1748V21.2584C0.000346207 32.2698 -0.0327188 31.5584 0.547422 33.1166C1.84798 36.6086 4.86291 39.1352 8.54916 39.8258C9.78859 40.0581 40.2114 40.0581 41.4508 39.8258C45.1371 39.1362 48.152 36.6096 49.4526 33.1166C50.0327 31.5584 49.9997 32.2698 49.9997 21.2584V11.1748L49.7832 10.4031C48.649 6.36468 45.7433 3.61182 41.6342 2.67905C41.02 2.53972 40.2134 2.50514 36.6765 2.46858L32.4532 2.42412L32.3369 2.14745C32.0504 1.46565 30.8209 0.645527 29.4663 0.233488C28.3992 -0.0915987 21.4756 -0.0718366 20.4506 0.259178ZM40.0601 5.82221C43.053 6.12555 45.3856 7.95256 46.3976 10.7874L46.6731 11.5591L46.7012 20.871C46.7332 31.5189 46.7653 31.0218 45.9236 32.7342C44.9758 34.662 43.064 36.1205 40.9288 36.5453C39.7856 36.7726 10.2114 36.7726 9.07118 36.5453C6.91594 36.1145 5.0112 34.6284 4.00923 32.5949C3.24473 31.0426 3.26677 31.4072 3.29883 20.871L3.32689 11.5591L3.63149 10.7163C4.60841 8.01679 6.9961 6.11666 9.77356 5.82912C10.9589 5.7066 38.8517 5.69968 40.0601 5.82122V5.82221ZM9.51706 6.88837C6.37889 7.34191 4.35391 9.89419 4.35391 13.398V14.6954H11.0661L11.2915 14.2369C12.2845 12.2123 14.2844 10.0167 16.4357 8.58692C17.2402 8.05236 19.3614 6.97631 19.6109 6.97631C19.669 6.97631 19.7161 6.93284 19.7161 6.87948C19.7161 6.76091 10.3457 6.76782 9.51706 6.88738V6.88837ZM30.2839 6.85478C30.2839 6.90023 30.4492 6.99509 30.6506 7.06524C33.7206 8.12943 37.462 11.4702 38.7385 14.2863L38.9249 14.6964H45.6471V13.399C45.6471 10.1284 44.1341 7.98418 41.1462 7.01683C40.5581 6.82612 30.2849 6.67395 30.2849 6.85576L30.2839 6.85478ZM24.0707 7.51779C12.6663 8.61558 7.13237 20.9748 14.0931 29.7976C21.7892 39.5512 37.8768 34.7015 38.8858 22.3236C39.5611 14.0343 32.2528 6.73126 24.0707 7.51779ZM26.6638 10.9455C33.2327 11.8753 37.3277 18.963 34.8278 25.0774C31.9482 32.1216 22.708 33.9279 17.4136 28.4804C10.3908 21.2544 16.5819 9.51871 26.6638 10.9455ZM23.8723 12.5719C17.9617 13.395 14.553 19.3474 16.8885 24.7701C19.5698 30.9942 28.5605 31.7659 32.376 26.1001C36.5512 19.9007 31.2949 11.5394 23.8723 12.5719ZM27.7168 13.9098C28.8581 14.2596 29.7118 15.0768 29.7318 15.8366C29.7779 17.5886 26.2289 17.5332 25.0416 15.7635C24.1388 14.4187 25.747 13.3051 27.7168 13.9098ZM22.701 27.2552C23.7821 27.4805 25.3923 28.4557 25.3923 28.8846C25.3923 29.8865 21.7581 29.2393 20.697 28.0486C19.9636 27.2246 20.8564 26.8708 22.701 27.2552ZM41.9128 30.9991C39.8938 31.6167 40.2846 34.3863 42.3897 34.3794C44.5309 34.3725 44.6902 31.2629 42.564 30.9734C42.3486 30.9438 42.056 30.9556 41.9128 31.0001V30.9991Z" fill="white"></path>
  </symbol>
  <symbol xmlns="http://www.w3.org/2000/svg" viewBox="0 0 50 40" id="icon">
    <path d="M20.4506 0.259178C19.0919 0.696909 17.9456 1.47652 17.6601 2.15634L17.5398 2.4419L15.6561 2.43301L15.4116 1.93006C15.2253 1.54668 15.063 1.3708 14.7263 1.18701L14.2864 0.945911H11.1062C6.93498 0.945911 6.40895 1.15341 6.40895 2.80355V3.26796L5.69955 3.61478C3.08441 4.8924 1.03538 7.41602 0.225789 10.3546L0.000346207 11.1748V21.2584C0.000346207 32.2698 -0.0327188 31.5584 0.547422 33.1166C1.84798 36.6086 4.86291 39.1352 8.54916 39.8258C9.78859 40.0581 40.2114 40.0581 41.4508 39.8258C45.1371 39.1362 48.152 36.6096 49.4526 33.1166C50.0327 31.5584 49.9997 32.2698 49.9997 21.2584V11.1748L49.7832 10.4031C48.649 6.36468 45.7433 3.61182 41.6342 2.67905C41.02 2.53972 40.2134 2.50514 36.6765 2.46858L32.4532 2.42412L32.3369 2.14745C32.0504 1.46565 30.8209 0.645527 29.4663 0.233488C28.3992 -0.0915987 21.4756 -0.0718366 20.4506 0.259178ZM40.0601 5.82221C43.053 6.12555 45.3856 7.95256 46.3976 10.7874L46.6731 11.5591L46.7012 20.871C46.7332 31.5189 46.7653 31.0218 45.9236 32.7342C44.9758 34.662 43.064 36.1205 40.9288 36.5453C39.7856 36.7726 10.2114 36.7726 9.07118 36.5453C6.91594 36.1145 5.0112 34.6284 4.00923 32.5949C3.24473 31.0426 3.26677 31.4072 3.29883 20.871L3.32689 11.5591L3.63149 10.7163C4.60841 8.01679 6.9961 6.11666 9.77356 5.82912C10.9589 5.7066 38.8517 5.69968 40.0601 5.82122V5.82221ZM9.51706 6.88837C6.37889 7.34191 4.35391 9.89419 4.35391 13.398V14.6954H11.0661L11.2915 14.2369C12.2845 12.2123 14.2844 10.0167 16.4357 8.58692C17.2402 8.05236 19.3614 6.97631 19.6109 6.97631C19.669 6.97631 19.7161 6.93284 19.7161 6.87948C19.7161 6.76091 10.3457 6.76782 9.51706 6.88738V6.88837ZM30.2839 6.85478C30.2839 6.90023 30.4492 6.99509 30.6506 7.06524C33.7206 8.12943 37.462 11.4702 38.7385 14.2863L38.9249 14.6964H45.6471V13.399C45.6471 10.1284 44.1341 7.98418 41.1462 7.01683C40.5581 6.82612 30.2849 6.67395 30.2849 6.85576L30.2839 6.85478ZM24.0707 7.51779C12.6663 8.61558 7.13237 20.9748 14.0931 29.7976C21.7892 39.5512 37.8768 34.7015 38.8858 22.3236C39.5611 14.0343 32.2528 6.73126 24.0707 7.51779ZM26.6638 10.9455C33.2327 11.8753 37.3277 18.963 34.8278 25.0774C31.9482 32.1216 22.708 33.9279 17.4136 28.4804C10.3908 21.2544 16.5819 9.51871 26.6638 10.9455ZM23.8723 12.5719C17.9617 13.395 14.553 19.3474 16.8885 24.7701C19.5698 30.9942 28.5605 31.7659 32.376 26.1001C36.5512 19.9007 31.2949 11.5394 23.8723 12.5719ZM27.7168 13.9098C28.8581 14.2596 29.7118 15.0768 29.7318 15.8366C29.7779 17.5886 26.2289 17.5332 25.0416 15.7635C24.1388 14.4187 25.747 13.3051 27.7168 13.9098ZM22.701 27.2552C23.7821 27.4805 25.3923 28.4557 25.3923 28.8846C25.3923 29.8865 21.7581 29.2393 20.697 28.0486C19.9636 27.2246 20.8564 26.8708 22.701 27.2552ZM41.9128 30.9991C39.8938 31.6167 40.2846 34.3863 42.3897 34.3794C44.5309 34.3725 44.6902 31.2629 42.564 30.9734C42.3486 30.9438 42.056 30.9556 41.9128 31.0001V30.9991Z" fill="white"></path>
  </symbol>
  <symbol  xmlns="http://www.w3.org/2000/svg" viewBox="0 0 66 50" id="gory">
    <path d="M-1.41598e-05 48.5029V1.49692C0.361986 0.60892 1.21999 -0.00608008 2.21999 -0.00608008C2.27999 -0.00608008 2.33999 -0.00408008 2.39899 0.000919921H2.39099H63.727C63.784 -0.00408008 63.851 -0.00708008 63.918 -0.00708008C65.158 -0.00708008 66.163 0.99792 66.163 2.23792C66.163 2.30492 66.16 2.37192 66.154 2.43692L66.155 2.42892C66.155 11.9029 66.155 21.3779 66.155 30.8339C66.155 36.4749 66.155 42.1149 66.155 47.7559C66.163 47.8219 66.167 47.8989 66.167 47.9769C66.167 49.0759 65.276 49.9669 64.177 49.9669C64.147 49.9669 64.117 49.9659 64.087 49.9649H64.091H2.64499C2.54299 49.9789 2.42599 49.9879 2.30599 49.9879C1.28699 49.9879 0.407986 49.3869 0.00498584 48.5209L-0.00201416 48.5049L-1.41598e-05 48.5029ZM62.066 4.14392H4.12499V32.0919L4.76399 31.6539L15.991 23.6039C16.388 23.2059 16.936 22.9599 17.543 22.9599C18.15 22.9599 18.698 23.2059 19.095 23.6039L30.888 32.0559C32.713 33.3699 34.539 34.6849 36.364 35.9629C36.696 36.2189 37.117 36.3739 37.575 36.3739C38.476 36.3739 39.237 35.7759 39.482 34.9549L39.486 34.9409C39.537 34.7709 39.566 34.5759 39.566 34.3729C39.566 33.5999 39.141 32.9259 38.511 32.5729L38.501 32.5679C35.9577 30.7793 33.469 28.9843 31.035 27.1829L30.469 26.7629L30.798 26.5069L40.966 19.2049C41.363 18.8069 41.911 18.5609 42.518 18.5609C43.125 18.5609 43.673 18.8069 44.07 19.2049L61.412 31.6549L62.051 32.0749L62.066 4.14392Z" fill="#BDAE82"></path>
  </symbol>
  <symbol  xmlns="http://www.w3.org/2000/svg" viewBox="0 0 62 42" id="Foto">
    <path d="M30.897 42.036C22.766 42.036 14.635 42.036 6.505 42.036C6.478 42.036 6.447 42.037 6.415 42.037C2.872 42.037 0 39.165 0 35.622C0 35.59 0 35.559 0.001 35.527V35.532C0.0723333 26.0967 0.0723333 16.6554 0.001 7.20803C0.001 7.19703 0.001 7.18503 0.001 7.17203C0.001 3.61903 2.881 0.739033 6.434 0.739033C22.767 0.739033 39.082 0.739033 55.415 0.739033C55.497 0.735033 55.593 0.733032 55.69 0.733032C59.085 0.733032 61.837 3.48503 61.837 6.88003C61.837 6.98303 61.834 7.08503 61.829 7.18603L61.83 7.17203V35.532C61.837 35.641 61.841 35.768 61.841 35.897C61.841 39.292 59.089 42.044 55.694 42.044C55.59 42.044 55.486 42.041 55.383 42.036L55.398 42.037L30.897 42.036ZM30.897 35.871C30.939 35.871 30.99 35.872 31.04 35.872C39.014 35.872 45.479 29.407 45.479 21.433C45.479 13.459 39.014 6.99403 31.04 6.99403C23.078 6.99403 16.622 13.438 16.601 21.394V21.396C16.65 29.281 22.988 35.669 30.849 35.799H30.861L30.897 35.871ZM12.384 11.049C12.345 9.92803 11.436 9.03103 10.313 9.01203H10.311C9.176 9.01203 8.256 9.93203 8.256 11.067C8.256 12.202 9.176 13.122 10.311 13.122C11.448 13.102 12.364 12.186 12.384 11.051V11.049Z" fill="#CCBA8D"></path>
  </symbol>
  <symbol  xmlns="http://www.w3.org/2000/svg" viewBox="0 0 16 16" id="footer-c">
    <path d="M8.14773 15.2273C12.3026 15.2273 15.6619 11.8679 15.6477 7.72727C15.6335 3.58665 12.3026 0.227273 8.14773 0.227273C4.02131 0.227273 0.661932 3.58665 0.647727 7.72727C0.633523 11.8679 4.02131 15.2273 8.14773 15.2273ZM8.14773 13.5795C4.91619 13.5795 2.28125 10.9446 2.29545 7.73438C2.30966 4.50284 4.9304 1.875 8.14773 1.875C11.3793 1.875 13.9858 4.48864 14 7.73438C14.0142 10.9588 11.3935 13.5795 8.14773 13.5795ZM4 7.72727C4 10.0568 5.8892 11.946 8.21875 11.946C10.2358 11.946 11.7841 10.5256 12.054 8.63636H10.3352C10.1364 9.60938 9.3125 10.2983 8.21875 10.2983C6.7983 10.2983 5.64773 9.14773 5.64773 7.72727C5.64773 6.30682 6.7983 5.15625 8.21875 5.15625C9.3125 5.15625 10.2855 5.84517 10.4773 6.81818H12.196C11.9261 4.92898 10.2358 3.50852 8.21875 3.50852C5.8892 3.50852 4 5.39773 4 7.72727Z" fill="white"></path>
  </symbol>
  <symbol  xmlns="http://www.w3.org/2000/svg" viewBox="0 0 28 28" id="footer-asemb">
    <path d="M14 0.666992C6.65699 0.693992 0.713989 6.65299 0.713989 14C0.713989 19.599 4.16599 24.393 9.05699 26.368L9.14599 26.4C9.01299 25.347 8.91899 23.733 9.18599 22.573L10.746 15.946C10.746 15.946 10.346 15.146 10.346 13.973C10.346 12.12 11.426 10.746 12.773 10.746C13.906 10.746 14.466 11.599 14.466 12.613C14.466 13.76 13.733 15.466 13.346 17.053C13.026 18.386 14.013 19.466 15.333 19.466C17.706 19.466 19.52 16.973 19.52 13.373C19.52 10.173 17.227 7.95999 13.947 7.95999C13.871 7.95599 13.783 7.95399 13.694 7.95399C10.505 7.95399 7.92099 10.539 7.92099 13.727C7.92099 13.729 7.92099 13.731 7.92099 13.733C7.92099 14.88 8.36099 16.106 8.90799 16.773C9.01499 16.906 9.02799 17.026 8.98799 17.16L8.61499 18.667C8.56199 18.907 8.41499 18.974 8.17499 18.854C6.49499 18.067 5.45499 15.654 5.45499 13.681C5.45499 9.48099 8.52199 5.62799 14.282 5.62799C18.895 5.62799 22.509 8.90799 22.509 13.321C22.509 17.921 19.602 21.614 15.576 21.614C14.243 21.614 12.963 20.907 12.536 20.081L11.696 23.241C11.265 24.578 10.704 25.739 10.008 26.804L10.042 26.748C11.212 27.12 12.558 27.335 13.953 27.335C21.317 27.335 27.286 21.365 27.286 14.002C27.286 6.65499 21.344 0.695992 14.004 0.668992H14.001L14 0.666992Z" fill="white"></path>
  </symbol>
  <symbol  xmlns="http://www.w3.org/2000/svg" viewBox="0 0 17 28" id="facebook">
    <path d="M5.04 27.333L5 15.666H0V10.666H5V7.33302C5 2.84002 7.787 0.666016 11.8 0.666016C13.72 0.666016 15.373 0.799016 15.853 0.866016V5.57302H13.066C10.893 5.57302 10.466 6.61302 10.466 8.13302V10.666H16.666L14.999 15.666H10.466V27.333H5.039H5.04Z" fill="white"></path>
  </symbol>
 <svg width="0" height="0" class="hidden">
                    <symbol fill="none" xmlns="http://www.w3.org/2000/svg" viewBox="0 0 28 22" id="twitter">
                      <path d="M27.333 2.83998C26.333 3.33298 25.333 3.50698 24.16 3.66698C25.333 2.99998 26.16 1.99998 26.493 0.666984C25.488 1.27498 24.317 1.73798 23.07 1.98898L23 2.00098C21.969 0.986984 20.56 0.354984 19.004 0.333984H19C16.16 0.333984 13.667 2.84098 13.667 5.84098C13.667 6.33398 13.667 6.66798 13.84 7.00098C9.26197 6.82298 5.22097 4.66398 2.52897 1.36198L2.50697 1.33398C2.08197 2.05998 1.83097 2.93198 1.83097 3.86298C1.83097 3.97198 1.83397 4.08098 1.84097 4.18898L1.83997 4.17398C1.87397 6.05198 2.84897 7.69498 4.31297 8.65498L4.33397 8.66798C3.49397 8.66798 2.66697 8.33498 1.82697 8.00098C1.82697 10.668 3.66697 12.841 6.15997 13.334C5.66697 13.507 5.15997 13.507 4.66697 13.507C4.33397 13.507 3.99997 13.507 3.66697 13.334C4.33397 15.507 6.33397 17.174 8.83997 17.174C7.03997 18.629 4.72397 19.509 2.20297 19.509C2.13197 19.509 2.06097 19.508 1.98997 19.507H2.00097H0.667969C3.03297 21.016 5.90397 21.936 8.98397 22H9.00097C19.001 22 24.508 13.667 24.508 6.49298V5.82598C25.655 5.03598 26.601 4.03898 27.311 2.88198L27.335 2.83998H27.333Z" fill="white"></path>
                    </symbol>
                  </svg>
  <symbol  xmlns="http://www.w3.org/2000/svg" viewBox="0 0 17 28" id="Contfasebook">
    <path d="M5.04 27.333L5 15.666H0V10.666H5V7.33302C5 2.84002 7.787 0.666016 11.8 0.666016C13.72 0.666016 15.373 0.799016 15.853 0.866016V5.57302H13.066C10.893 5.57302 10.466 6.61302 10.466 8.13302V10.666H16.666L14.999 15.666H10.466V27.333H5.039H5.04Z" fill="white"></path>
  </symbol>
  <symbol  xmlns="http://www.w3.org/2000/svg" viewBox="0 0 28 28" id="footer-foto">
    <path d="M15.36 0.666992C17.76 0.666992 18.267 0.693992 19.493 0.746992C20.906 0.813992 21.88 1.03999 22.72 1.37399C23.6 1.70699 24.347 2.17399 25.08 2.90699C25.827 3.63999 26.28 4.38699 26.627 5.26699C26.96 6.10699 27.174 7.07999 27.24 8.50699C27.307 9.77399 27.32 10.267 27.32 12.934V15.067C27.32 17.734 27.307 18.227 27.24 19.494C27.217 20.659 26.994 21.764 26.604 22.788L26.626 22.721C26.279 23.601 25.826 24.348 25.093 25.081C24.346 25.828 23.6 26.281 22.72 26.628C21.88 26.961 20.907 27.175 19.493 27.241C18.226 27.308 17.72 27.321 15.053 27.321H12.933C10.266 27.321 9.77296 27.308 8.49296 27.241C7.32796 27.218 6.22296 26.995 5.19896 26.605L5.26596 26.627C4.34296 26.274 3.55596 25.753 2.90696 25.094L2.90596 25.093C2.23996 24.441 1.71396 23.649 1.37396 22.764L1.35896 22.719C0.991964 21.763 0.768964 20.657 0.745964 19.502V19.492C0.692964 18.45 0.662964 17.229 0.662964 16.002C0.662964 15.776 0.663964 15.55 0.665964 15.325V15.359V12.626C0.665964 10.226 0.692964 9.71899 0.745964 8.49299C0.812964 7.07999 1.03896 6.10599 1.35896 5.26599C1.70596 4.38599 2.15896 3.63899 2.90596 2.90599C3.55096 2.23899 4.33996 1.71599 5.22296 1.38699L5.26596 1.37299C6.22096 1.00199 7.32596 0.773992 8.48096 0.746992H8.49296C9.71996 0.693992 10.226 0.666992 12.626 0.666992H15.36ZM15.387 3.06699H12.6C10.293 3.06699 9.79996 3.09399 8.59996 3.14699C7.30696 3.19999 6.59996 3.41399 6.13296 3.59999C5.50596 3.83999 5.06596 4.13299 4.59996 4.59999C4.13396 5.06699 3.83996 5.50699 3.59996 6.13299C3.42696 6.59999 3.19996 7.30599 3.14696 8.61299C3.09396 9.81299 3.06696 10.293 3.06696 12.613V15.386C3.06696 17.706 3.09396 18.186 3.14696 19.386C3.19996 20.679 3.41396 21.386 3.59996 21.853C3.83996 22.48 4.13296 22.92 4.59996 23.386C5.06696 23.852 5.50696 24.146 6.13296 24.386C6.59996 24.573 7.30596 24.786 8.61296 24.839C9.90596 24.906 10.373 24.919 13.253 24.919H14.733C17.626 24.919 18.08 24.906 19.386 24.839C20.679 24.786 21.386 24.572 21.853 24.386C22.48 24.146 22.92 23.853 23.386 23.386C23.852 22.919 24.146 22.479 24.386 21.853C24.573 21.386 24.786 20.68 24.839 19.386C24.906 18.079 24.919 17.626 24.919 14.733V13.266C24.919 10.373 24.906 9.90599 24.839 8.59899C24.786 7.30599 24.572 6.59899 24.386 6.13199C24.16 5.53099 23.819 5.01799 23.387 4.59999L23.386 4.59899C22.966 4.16599 22.454 3.82499 21.881 3.60799L21.853 3.59899C21.121 3.32299 20.275 3.15799 19.391 3.14599H19.386C18.358 3.09399 17.155 3.06399 15.944 3.06399C15.748 3.06399 15.552 3.06499 15.356 3.06599H15.386L15.387 3.06699ZM14 7.14699C17.781 7.14699 20.847 10.212 20.847 13.994C20.847 17.776 17.782 20.841 14 20.841C10.219 20.841 7.15296 17.776 7.15296 13.994C7.15296 10.212 10.218 7.14699 14 7.14699ZM14 9.54699C11.544 9.54699 9.55296 11.538 9.55296 13.994C9.55296 16.45 11.544 18.441 14 18.441C16.456 18.441 18.447 16.45 18.447 13.994C18.447 11.538 16.456 9.54699 14 9.54699ZM21.107 5.27999C21.991 5.27999 22.707 5.99599 22.707 6.87999C22.707 7.76399 21.991 8.47999 21.107 8.47999C20.223 8.47999 19.507 7.76399 19.507 6.87999C19.507 5.99599 20.223 5.27999 21.107 5.27999Z" fill="white"></path>
  </symbol>
  <symbol  xmlns="http://www.w3.org/2000/svg" viewBox="0 0 28 28" id="Contass">
    <path d="M14 0.666992C6.65699 0.693992 0.713989 6.65299 0.713989 14C0.713989 19.599 4.16599 24.393 9.05699 26.368L9.14599 26.4C9.01299 25.347 8.91899 23.733 9.18599 22.573L10.746 15.946C10.746 15.946 10.346 15.146 10.346 13.973C10.346 12.12 11.426 10.746 12.773 10.746C13.906 10.746 14.466 11.599 14.466 12.613C14.466 13.76 13.733 15.466 13.346 17.053C13.026 18.386 14.013 19.466 15.333 19.466C17.706 19.466 19.52 16.973 19.52 13.373C19.52 10.173 17.227 7.95999 13.947 7.95999C13.871 7.95599 13.783 7.95399 13.694 7.95399C10.505 7.95399 7.92099 10.539 7.92099 13.727C7.92099 13.729 7.92099 13.731 7.92099 13.733C7.92099 14.88 8.36099 16.106 8.90799 16.773C9.01499 16.906 9.02799 17.026 8.98799 17.16L8.61499 18.667C8.56199 18.907 8.41499 18.974 8.17499 18.854C6.49499 18.067 5.45499 15.654 5.45499 13.681C5.45499 9.48099 8.52199 5.62799 14.282 5.62799C18.895 5.62799 22.509 8.90799 22.509 13.321C22.509 17.921 19.602 21.614 15.576 21.614C14.243 21.614 12.963 20.907 12.536 20.081L11.696 23.241C11.265 24.578 10.704 25.739 10.008 26.804L10.042 26.748C11.212 27.12 12.558 27.335 13.953 27.335C21.317 27.335 27.286 21.365 27.286 14.002C27.286 6.65499 21.344 0.695992 14.004 0.668992H14.001L14 0.666992Z" fill="white"></path>
  </symbol>
  <symbol  xmlns="http://www.w3.org/2000/svg" viewBox="0 0 28 28" id="camera">
    <path d="M15.36 0.666992C17.76 0.666992 18.267 0.693992 19.493 0.746992C20.906 0.813992 21.88 1.03999 22.72 1.37399C23.6 1.70699 24.347 2.17399 25.08 2.90699C25.827 3.63999 26.28 4.38699 26.627 5.26699C26.96 6.10699 27.174 7.07999 27.24 8.50699C27.307 9.77399 27.32 10.267 27.32 12.934V15.067C27.32 17.734 27.307 18.227 27.24 19.494C27.217 20.659 26.994 21.764 26.604 22.788L26.626 22.721C26.279 23.601 25.826 24.348 25.093 25.081C24.346 25.828 23.6 26.281 22.72 26.628C21.88 26.961 20.907 27.175 19.493 27.241C18.226 27.308 17.72 27.321 15.053 27.321H12.933C10.266 27.321 9.77296 27.308 8.49296 27.241C7.32796 27.218 6.22296 26.995 5.19896 26.605L5.26596 26.627C4.34296 26.274 3.55596 25.753 2.90696 25.094L2.90596 25.093C2.23996 24.441 1.71396 23.649 1.37396 22.764L1.35896 22.719C0.991964 21.763 0.768964 20.657 0.745964 19.502V19.492C0.692964 18.45 0.662964 17.229 0.662964 16.002C0.662964 15.776 0.663964 15.55 0.665964 15.325V15.359V12.626C0.665964 10.226 0.692964 9.71899 0.745964 8.49299C0.812964 7.07999 1.03896 6.10599 1.35896 5.26599C1.70596 4.38599 2.15896 3.63899 2.90596 2.90599C3.55096 2.23899 4.33996 1.71599 5.22296 1.38699L5.26596 1.37299C6.22096 1.00199 7.32596 0.773992 8.48096 0.746992H8.49296C9.71996 0.693992 10.226 0.666992 12.626 0.666992H15.36ZM15.387 3.06699H12.6C10.293 3.06699 9.79996 3.09399 8.59996 3.14699C7.30696 3.19999 6.59996 3.41399 6.13296 3.59999C5.50596 3.83999 5.06596 4.13299 4.59996 4.59999C4.13396 5.06699 3.83996 5.50699 3.59996 6.13299C3.42696 6.59999 3.19996 7.30599 3.14696 8.61299C3.09396 9.81299 3.06696 10.293 3.06696 12.613V15.386C3.06696 17.706 3.09396 18.186 3.14696 19.386C3.19996 20.679 3.41396 21.386 3.59996 21.853C3.83996 22.48 4.13296 22.92 4.59996 23.386C5.06696 23.852 5.50696 24.146 6.13296 24.386C6.59996 24.573 7.30596 24.786 8.61296 24.839C9.90596 24.906 10.373 24.919 13.253 24.919H14.733C17.626 24.919 18.08 24.906 19.386 24.839C20.679 24.786 21.386 24.572 21.853 24.386C22.48 24.146 22.92 23.853 23.386 23.386C23.852 22.919 24.146 22.479 24.386 21.853C24.573 21.386 24.786 20.68 24.839 19.386C24.906 18.079 24.919 17.626 24.919 14.733V13.266C24.919 10.373 24.906 9.90599 24.839 8.59899C24.786 7.30599 24.572 6.59899 24.386 6.13199C24.16 5.53099 23.819 5.01799 23.387 4.59999L23.386 4.59899C22.966 4.16599 22.454 3.82499 21.881 3.60799L21.853 3.59899C21.121 3.32299 20.275 3.15799 19.391 3.14599H19.386C18.358 3.09399 17.155 3.06399 15.944 3.06399C15.748 3.06399 15.552 3.06499 15.356 3.06599H15.386L15.387 3.06699ZM14 7.14699C17.781 7.14699 20.847 10.212 20.847 13.994C20.847 17.776 17.782 20.841 14 20.841C10.219 20.841 7.15296 17.776 7.15296 13.994C7.15296 10.212 10.218 7.14699 14 7.14699ZM14 9.54699C11.544 9.54699 9.55296 11.538 9.55296 13.994C9.55296 16.45 11.544 18.441 14 18.441C16.456 18.441 18.447 16.45 18.447 13.994C18.447 11.538 16.456 9.54699 14 9.54699ZM21.107 5.27999C21.991 5.27999 22.707 5.99599 22.707 6.87999C22.707 7.76399 21.991 8.47999 21.107 8.47999C20.223 8.47999 19.507 7.76399 19.507 6.87999C19.507 5.99599 20.223 5.27999 21.107 5.27999Z" fill="white"></path>
  </symbol>
</svg>
<svg class="icon">
  <use xlink:href="#microfon"></use>
</svg><svg class="icon">
  <use xlink:href="#twiter"></use>
</svg><svg class="icon">
  <use xlink:href="#skill-foto2"></use>
</svg><svg class="icon">
  <use xlink:href="#skill-foto"></use>
</svg><svg class="icon">
  <use xlink:href="#podmicrfon"></use>
</svg><svg class="icon">
  <use xlink:href="#plen"></use>
</svg><svg class="icon">
  <use xlink:href="#Play_hover"></use>
</svg><svg class="icon">
  <use xlink:href="#logo"></use>
</svg><svg class="icon">
  <use xlink:href="#icon"></use>
</svg><svg class="icon">
  <use xlink:href="#gory"></use>
</svg><svg class="icon">
  <use xlink:href="#Foto"></use>
</svg><svg class="icon">
  <use xlink:href="#footer-c"></use>
</svg><svg class="icon">
  <use xlink:href="#footer-asemb"></use>
</svg><svg class="icon">
  <use xlink:href="#facebook"></use>
</svg><svg class="icon">
  <use xlink:href="#twitter"></use>
</svg><svg class="icon">
  <use xlink:href="#Contfasebook"></use>
</svg><svg class="icon">
  <use xlink:href="#footer-foto"></use>
</svg><svg class="icon">
  <use xlink:href="#Contass"></use>
</svg><svg class="icon">
  <use xlink:href="#camera"></use>
</svg>